<?xml version="1.0" encoding="utf-8"?>
<!-- Generator: Adobe Illustrator 25.0.1, SVG Export Plug-In . SVG Version: 6.00 Build 0)  -->
<svg version="1.1" id="Layer_1" xmlns="http://www.w3.org/2000/svg" xmlns:xlink="http://www.w3.org/1999/xlink" x="0px" y="0px"
	 viewBox="0 0 1101.7 150" style="enable-background:new 0 0 1101.7 150;" xml:space="preserve">
<style type="text/css">
	.st0{fill:#FFFFFF;}
	.st1{fill:#000066;}
	.st2{fill:#990000;}
</style>
<g>
	<g>
		<g>
			<path class="st0" d="M125.7,0H0v45.6L0.2,69c0,6.4,0.7,12.7,2,18.6c1.2,5.5,3.1,10.9,5.5,16c4.2,8.9,10.1,17.1,17.6,24.3
				c3.1,3,6.6,5.9,10.2,8.5c3.2,2.3,6.5,4.4,9.9,6.3c7.7,4.3,13.6,6.2,15.8,6.8l1.6,0.5l1.6-0.5c2.2-0.6,8-2.5,15.8-6.8
				c3.4-1.9,6.7-4,9.9-6.3c3.6-2.6,7-5.5,10.2-8.5c7.5-7.2,13.4-15.4,17.6-24.3c2.4-5.1,4.3-10.5,5.5-16c1.3-6,2-12.2,2-18.6
				l0.2-23.3V0z"/>
			<path class="st1" d="M1.5,47.1L1.7,69c0,6.3,0.7,12.5,2,18.3c1.2,5.4,3,10.7,5.4,15.7c4.1,8.7,9.9,16.8,17.3,23.8
				c3.1,3,6.5,5.8,10,8.4c3.1,2.2,6.4,4.3,9.8,6.2c7.6,4.2,13.3,6.1,15.5,6.7l1.2,0.4l1.2-0.4c2.1-0.6,7.9-2.5,15.5-6.7
				c3.4-1.9,6.6-4,9.8-6.2c3.6-2.6,6.9-5.4,10-8.4c7.4-7.1,13.2-15.1,17.3-23.8c2.4-5,4.2-10.3,5.4-15.7c1.3-5.9,2-12,2-18.3
				l0.2-21.9H1.5z M121.8,68.9c0,6.2-0.7,12.2-1.9,17.9c-1.2,5.3-3,10.4-5.2,15.3c-4,8.5-9.7,16.3-16.8,23.2c-3,2.9-6.3,5.6-9.8,8.2
				c-3,2.2-6.3,4.2-9.5,6.1c-7.4,4.1-13,5.9-15,6.5l-0.6,0.2l-0.6-0.2c-2-0.6-7.6-2.4-15-6.5c-3.3-1.8-6.5-3.9-9.5-6.1
				c-3.5-2.5-6.8-5.3-9.8-8.2c-7.2-6.9-12.8-14.7-16.8-23.2c-2.3-4.9-4.1-10-5.2-15.3c-1.3-5.7-1.9-11.7-1.9-17.9L3.7,49.3H122
				L121.8,68.9z"/>
			<path class="st1" d="M7.5,86.3c1.2,5.2,2.9,10.2,5.1,14.9c3.9,8.3,9.4,15.9,16.4,22.7c2.9,2.8,6.2,5.5,9.6,8c3,2.2,6.1,4.2,9.3,6
				c7.2,4,12.6,5.8,14.6,6.4l0.3,0.1l0.3-0.1c2-0.6,7.4-2.3,14.6-6.4c3.2-1.8,6.4-3.8,9.3-6c3.4-2.5,6.6-5.2,9.6-8
				c7-6.7,12.5-14.4,16.4-22.7c2.2-4.7,3.9-9.8,5.1-14.9c1.3-5.6,1.9-11.5,1.9-17.5l0.2-18.4H5.4l0.2,18.4
				C5.6,74.8,6.3,80.7,7.5,86.3 M119.2,51.5L119,68.8c0,49.5-42.8,70.6-56.1,74.4c-13.3-3.8-56.1-24.9-56.1-74.4L6.6,51.5H119.2z"/>
			<rect x="1.5" y="1.5" class="st1" width="122.8" height="9.2"/>
			<rect x="73.8" y="97.3" class="st2" width="22" height="22"/>
			<rect x="73.8" y="53.3" class="st2" width="22" height="22"/>
			<rect x="29.9" y="53.3" class="st2" width="22" height="22"/>
			<rect x="29.9" y="97.3" class="st2" width="22" height="22"/>
			<rect x="51.9" y="75.3" class="st2" width="22" height="22"/>
			<path class="st2" d="M51.9,119.3v17.4c5.2,2.7,9.1,4,11,4.6c1.9-0.6,5.8-1.9,11-4.6v-17.4H51.9z"/>
			<path class="st2" d="M116.9,75.3H95.8v22h15.8c1.6-3.7,2.8-7.6,3.7-11.6C116.1,82.3,116.6,78.8,116.9,75.3"/>
			<path class="st2" d="M29.9,75.3H8.8c0.3,3.5,0.8,7,1.6,10.4c0.9,4,2.1,7.9,3.7,11.6h15.8V75.3z"/>
			<polygon class="st1" points="1.5,16.8 1.6,43.9 124.3,43.9 124.1,16.8 			"/>
		</g>
		<g>
			<g>
				<path class="st1" d="M192.7,1.5v0.9c-5.7,0.6-6.1,4.1-6.3,12.4l-0.4,13.8c-0.2,8.1-3.6,16.3-17.6,16.3
					c-19.5,0-17.5-14.1-17.5-19.1V11.8c-0.2-6.5-0.3-8.4-7.8-9.4V1.5h21.7v0.9c-8.2,1.2-8.4,2.5-8.4,9.4v12.9
					c0,1.2-2,17.4,15.2,17.4c13.6,0,12.2-12.9,12.2-20.6v-6.6c0-8-0.6-11.6-9.4-12.4V1.5H192.7z"/>
				<path class="st1" d="M221.2,36.8L221,19.6c0-4.5-1.3-5.8-6.6-6.7v-0.7h12.9v0.7c-3.2,0.4-3.9,2.2-4.2,5.3
					c-0.7,5.2-0.4,16.5-0.2,26.8l-0.6,0.1c-7.5-8.9-15.9-17.1-23.9-25.7V28c0,11.7-0.3,14.1,6.5,15.4v0.7h-14.1v-0.7
					c6.4-0.7,6.1-5,6.1-15.7v-7.1c0-4.7-0.8-6.5-6.7-7.9v-0.7h7.8L221.2,36.8z"/>
				<path class="st1" d="M238.5,36.5c0.1,4.9,0.2,6.3,5.8,7v0.7h-15.8v-0.7c5.7-0.8,5.7-2.2,5.8-7V19.9c-0.1-4.8-0.2-6.3-5.8-7v-0.7
					h15.8v0.7c-5.7,0.8-5.7,2.2-5.8,7V36.5z"/>
				<path class="st1" d="M281.3,12.2v0.7c-4.4,0.4-5.8,4.1-8.7,10.9l-9,21.5h-0.7l-10.6-25.5c-1.4-3.4-2.5-6.5-6.7-6.9v-0.7h14.9
					v0.7c-6.6,0.7-4.5,4.4-3.2,7.4l7.5,18.2l5.6-13.3c4.1-9.7,4.8-11.2-2.4-12.2v-0.7H281.3z"/>
				<path class="st1" d="M282.3,43.5c5.7-0.8,5.7-2.2,5.8-7V19.9c-0.1-4.8-0.2-6.3-5.8-7v-0.7h25.3l-0.6,7.3h-0.7
					c-0.3-6.1-4.7-6.1-9.5-6.1h-4.6v13.4h4.9c3.5,0,6.2-0.3,6.7-4.3h0.7v10.5h-0.7c-0.6-4.1-3.2-4.2-6.7-4.2h-4.9v7.7
					c0,2.8-0.7,6.6,7.1,6.6c5.9,0,8.9-2.3,10-8.2h0.7c0,3.6-0.7,6.5-1.6,9.3h-26.2V43.5z"/>
				<path class="st1" d="M316.4,21.9c0-7.2-0.2-8.3-5.5-8.8v-0.7l11.5-0.4c11.9-0.4,12.8,5.4,12.8,7.7c0,4-2.4,6.2-5.8,7.7l0.2,0.3
					c3.6,6.4,8.1,14.5,15.9,16.1l-0.1,0.7c-5-0.2-8.7-0.1-11.4-2.9c-3.1-3.2-5.6-7.4-6.5-9.4c-1.9-3.9-3.6-2.8-6.9-3.3v7.6
					c0,5.2,0.1,6.1,6.5,7v0.7h-16.5v-0.7c5.7-0.8,5.7-2.2,5.8-7V21.9z M320.5,28.1c4.5,0,9.8-2.1,9.8-7.3c0-5.5-4.9-7.7-9.8-7.7
					V28.1z"/>
				<path class="st1" d="M361.7,20.5H361c-0.8-3.8-2-7.5-6.6-7.5c-3,0-5.5,2.1-5.5,5.2c0,8.1,14.8,7.9,14.8,17.4
					c0,6.1-6,9.2-11.4,9.2c-2.9,0-5.9-0.8-8.3-2.4l-1.4-8h0.8c1.2,4.5,4.3,9,9.5,9c3.5,0,6.2-2.1,6.2-5.7c0-8.4-14.4-7.6-14.4-17.1
					c0-5.5,5.5-9,10.5-9c2.4,0,4.8,0.7,6.9,1.8L361.7,20.5z"/>
				<path class="st1" d="M375.3,36.5c0.1,4.9,0.2,6.3,5.8,7v0.7h-15.8v-0.7c5.7-0.8,5.7-2.2,5.8-7V19.9c-0.1-4.8-0.2-6.3-5.8-7v-0.7
					h15.8v0.7c-5.7,0.8-5.7,2.2-5.8,7V36.5z"/>
				<path class="st1" d="M411.1,10.7h0.4l0.7,8.8l-0.7,0.1c-1.6-5.8-4.2-6.1-9.7-6.1H399v21.8c0,5.8,0.3,7.4,6.6,8.1v0.7h-17.3v-0.7
					c6.3-0.8,6.6-2.3,6.6-8.1V13.6H392c-5.4,0-8,0.2-9.7,6.1l-0.7-0.1l0.7-8.8h0.4l0.5,0.4c1.2,1.1,1.4,1,2.9,1h21.6
					c1.6,0,1.7,0,2.9-1L411.1,10.7z"/>
				<path class="st1" d="M443.1,12.2v0.7c-4.1,0.3-6.1,2.6-8.1,6l-5.6,11v5.3c0.1,5.4,0.2,7.3,6.2,8.3v0.7h-16.6v-0.7
					c6-0.9,6.1-2.9,6.2-8.3v-3.8l-4.9-10.7c-1.8-4-3.1-7.3-7.8-7.9v-0.7h13v0.7c-3.9,0.5-3.3,2.1-1.8,5.4l4.7,10.2l4.1-7.8
					c2.9-5.5,2.5-7.3-1.6-7.8v-0.7H443.1z"/>
			</g>
			<g>
				<path class="st1" d="M492.2,28.2c0,10.1-7.3,16.6-17.2,16.6c-9.9,0-17.2-6.5-17.2-16.6c0-10,7.3-16.5,17.2-16.5
					C487,11.6,492.2,19.8,492.2,28.2z M463.2,27c0,7.3,3.9,16.6,12.3,16.6c7.8,0,11.2-7.9,11.2-14.6c-0.1-8.3-5-16.2-12.2-16.2
					C466.4,12.7,463.2,20.6,463.2,27z"/>
				<path class="st1" d="M514.6,22.5V34h-0.7c-0.4-4.8-2.8-4.7-6.8-4.7h-5.1v7.1c0,5,0.2,6,6.8,7v0.7h-16.8v-0.7
					c5.7-0.8,5.7-2.2,5.8-7V19.9c-0.1-4.8-0.2-6.3-5.8-7v-0.7h24.9l-0.8,7.4h-0.7c-0.3-6.1-4.2-6.3-9.2-6.3h-4.3v14.1h5.1
					c4,0,6.4-0.4,6.8-4.9H514.6z"/>
			</g>
			<g>
				<path class="st1" d="M587.3,36.5V19.9c0.1-4.8,0.2-6.3,5.8-7v-0.7h-15.8v0.7c5.7,0.8,5.7,2.2,5.8,7v16.6c-0.1,4.5-0.2,6-4.6,6.8
					c-9.3-2.9-14.9-13-19.5-20.9l-0.3-0.4c4.5-2,7.8-5,7.8-10.3c0-3-1.3-10.7-17.1-10.2l-15.3,0.5v0.9c7,0.6,7.3,2.1,7.3,11.7v19.5
					c-0.2,6.5-0.3,8.4-7.8,9.4v0.9h22v-0.9c-8.6-1.2-8.7-2.4-8.7-9.4V23.8c4.4,0.8,6.7-0.8,9.2,4.5c1.3,2.7,4.6,8.2,8.7,12.6
					c1.1,1.1,2.3,1.9,3.6,2.4c3.1,1.3,7,0.9,10,0.9s14.5,0,14.5,0v-0.7C587.5,42.7,587.5,41.3,587.3,36.5z M547.1,22.7v-20
					c6.6-0.1,13.1,2.9,13.1,10.2C560.2,19.9,553.1,22.7,547.1,22.7z"/>
				<path class="st1" d="M622.8,34c-2.1,5.1-4.6,9.6-10.7,9.6c-6.8,0-13.9-6.5-13.9-15.7c0-8.1,4.9-15.2,13.5-15.2
					c5.7,0,8.8,3.8,9.7,9.1h0.7v-7.7c-3.1-1.8-6.7-2.5-10.3-2.5c-12.4,0-19,8.5-19,16.9c0,10.6,8.8,16.3,18.6,16.3
					c3.3,0,6.6-0.6,9.6-2c1.1-2.7,2-5.6,2.6-8.4L622.8,34z"/>
				<g>
					<path class="st1" d="M633.8,36.5c0,5.2,0.1,6.1,6.3,7v0.7h-16.3v-0.7c5.7-0.8,5.7-2.2,5.8-7V19.9c-0.1-4.8-0.2-6.3-5.8-7v-0.7
						H640v0.7c-6.2,0.9-6.3,1.8-6.3,7v6.8h18.9v-6.8c0-5.2-0.1-6.1-6.3-7v-0.7h16.2v0.7c-5.7,0.8-5.7,2.2-5.8,7v16.6
						c0.1,4.9,0.2,6.3,5.8,7v0.7h-16.2v-0.7c6.2-0.9,6.3-1.8,6.3-7v-7.8h-18.9V36.5z"/>
					<path class="st1" d="M686.1,37.3l8.5-18.7c1.2-2.6,1.8-4.9,0.8-5.7l0.1-0.8h10.4v0.7c-3,0.6-4.9,1.7-4.7,5l1,17.1
						c0.5,6.5,0.5,7.6,5.6,8.4v0.7h-15.5v-0.7c3.6-0.6,5.9-1,5.7-5.1l-1.3-20.6h-0.1l-12,26.4h-0.5L673,18.9h-0.1
						c-0.8,7.2-1.1,12.4-1.5,19.7c-0.1,1.8,0,4,5.7,4.9v0.7h-13.1v-0.7c4.2-0.7,4.6-2.7,5.3-6.5l1.7-13.2l0.6-6.4
						c0.3-3.1-2.4-4.2-5.2-4.4v-0.7h10.2l0,0.5c-1,1.1,0.2,3.9,0.6,4.7L686.1,37.3z"/>
				</g>
				<g>
					<path class="st1" d="M741.6,28.2c0,10.1-7.3,16.6-17.2,16.6c-9.9,0-17.2-6.5-17.2-16.6c0-10,7.3-16.5,17.2-16.5
						C736.4,11.6,741.6,19.8,741.6,28.2z M712.6,27c0,7.3,3.9,16.6,12.3,16.6c7.8,0,11.2-7.9,11.2-14.6c-0.1-8.3-5-16.2-12.2-16.2
						C715.9,12.7,712.6,20.6,712.6,27z"/>
					<path class="st1" d="M771.4,36.8l-0.2-17.2c0-4.5-1.3-5.8-6.6-6.7v-0.7h12.9v0.7c-3.2,0.4-3.9,2.2-4.2,5.3
						c-0.7,5.2-0.4,16.5-0.2,26.8l-0.6,0.1c-7.5-8.9-15.9-17.1-23.9-25.7V28c0,11.7-0.3,14.1,6.5,15.4v0.7H741v-0.7
						c6.4-0.7,6.1-5,6.1-15.7v-7.1c0-4.7-0.8-6.5-6.7-7.9v-0.7h7.8L771.4,36.8z"/>
				</g>
				<g>
					<path class="st1" d="M778.5,12.4l11.4-0.4c20.7-0.7,22.9,11.3,22.9,16.2c0,6.7-4.3,16.2-20.5,16l-14-0.1v-0.7
						c5.7-0.8,5.7-2.2,5.8-7V20.1c-0.1-4.9-0.2-6.3-5.6-7V12.4z M788.2,36.9c0,3.2,0.6,6.2,6.4,6.2c5.4,0,12.7-3.4,12.7-14.1
						c0-11.3-8.9-16-19.1-16V36.9z"/>
				</g>
			</g>
		</g>
	</g>
	<g>
		<g>
			<path class="st1" d="M184.8,102.2c0,8.3-7.4,16.8-20.6,16.8c-3.5,0-9.4-0.9-13.7-3.2c-1.2-0.7-1.5-2-1.5-3.6
				c0-2.5,0.1-5.2,0.2-7.5c0.1-1.1,0.3-2.5,1.8-2.5c1.7,0,1.9,3.3,2.5,5.8c1.2,5.3,5,8.6,11.2,8.6c6.1,0,11.6-3.9,11.6-9.8
				c0-6.3-4.5-9.4-10.6-12c-1.3-0.5-2.7-1.2-4.1-1.8c-5.9-2.5-11.6-6.2-11.6-13.7c0-10.5,10.8-14.7,17.9-14.7
				c3.4,0,8.3,0.5,12.1,1.8c1.5,0.6,1.5,1.4,1.5,2.9c0.1,2.2,0.2,4.3,0.3,6.5c0,0.9-0.3,1.8-1.5,1.8c-1.2,0-1.6-1.3-2-2.3
				c-1.5-5.3-4.4-8.3-10.3-8.3c-5,0-9.8,2.7-9.8,8.1c0,6.5,7.8,9.1,14.2,11.8C178.5,89.6,184.8,93.6,184.8,102.2L184.8,102.2z"/>
			<path class="st1" d="M189.4,100.2c0-11.5,10.8-20.1,22.1-20.1c2.7,0,7.5,0.7,10.4,2.6c0.9,0.5,1.2,1.3,1.3,2.3c0.1,0.6,0,1.4,0,2
				s0.1,1.5,0,2.2c-0.1,1.1-0.4,2.3-1.5,2.3c-1.8,0-3-3-5.3-5.8c-1.8-2.1-3.4-3.3-5.7-3.3c-5.9,0-12.5,6.3-12.5,15.5
				c0,9,6.3,16.9,14.6,16.9c3.2,0,6.3-1,8.5-3.1c0.3-0.3,1.3-1.2,1.8-1.2c0.3,0,0.8,0.3,0.8,1c0,1.3-5.3,7.5-15.1,7.5
				C198.4,119,189.4,111.1,189.4,100.2L189.4,100.2z"/>
			<path class="st1" d="M231.2,72.6c0-5.8,0-6.5-4.3-6.8c-1.1-0.2-1.8-0.3-1.8-1.2c0-0.8,0.8-1,2.3-1.2c2.6-0.3,5.6-1.1,8.4-2.5
				c0.7-0.4,1.9-1.1,2.6-1.1c0.8,0,0.8,0.5,0.8,1.7v23c0,0.6,0.1,1,0.5,1c0.4,0,1.1-0.4,1.4-0.7c3.5-3.3,6.9-4.8,11.9-4.8
				c11,0,12.3,8.2,12.3,14.9v14.4c0,4.4,0,6.3,3.7,6.4c1,0.1,2.3,0.2,2.3,1.3c0,0.8-0.7,1.1-1.3,1.1c-2.5,0-6.2-0.3-8.4-0.3
				c-2.5,0-6.3,0.3-8.7,0.3c-0.8,0-1.3-0.4-1.3-1.1c0-1.1,1.3-1.2,2.3-1.3c3-0.1,3.2-1.8,3.2-6.3V96c0-2.7,0-5.8-1.2-7.9
				c-1.4-2.5-3.9-3.8-7.3-3.8c-3,0-5.6,1.2-7.4,3.3c-2,2.3-2.1,4.1-2.1,7v15.4c0,4.3,0.1,5.9,3.3,6.1c0.8,0.1,2.1,0.2,2.1,1.2
				c0,0.9-0.8,1.2-1.3,1.2c-2.3,0-5.8-0.3-7.9-0.3c-2.6,0-6.8,0.3-9.3,0.3c-0.6,0-1.4-0.2-1.4-1c0-1.3,1.4-1.3,2.5-1.4
				c3.8-0.1,3.8-1.8,3.8-7.4V72.6z"/>
			<path class="st1" d="M293.1,119c-11.9,0-21.1-8.6-21.1-19.6c0-9.4,7.6-19.3,21.1-19.3c14.6,0,21.4,10.3,21.4,19.1
				C314.5,110.2,305.5,119,293.1,119L293.1,119z M293.7,116.7c8,0,12-9.8,12-16.4c0-8.7-4.3-17.8-12.6-17.8c-7.7,0-12.4,7.1-12.4,16
				C280.7,107.5,285.6,116.7,293.7,116.7L293.7,116.7z"/>
			<path class="st1" d="M339,119c-11.9,0-21.1-8.6-21.1-19.6c0-9.4,7.6-19.3,21.1-19.3c14.6,0,21.4,10.3,21.4,19.1
				C360.3,110.2,351.3,119,339,119L339,119z M339.6,116.7c8,0,12-9.8,12-16.4c0-8.7-4.3-17.8-12.6-17.8c-7.7,0-12.4,7.1-12.4,16
				C326.5,107.5,331.5,116.7,339.6,116.7L339.6,116.7z"/>
			<path class="st1" d="M367.4,72.5c0-6,0-6.4-4.2-6.7c-0.9-0.1-1.7-0.2-1.7-1.1c0-0.8,0.8-1,2.1-1.2c3.3-0.4,6.8-1.3,8.8-2.8
				c0.7-0.3,1.5-0.9,2.3-0.9c0.8,0,0.8,0.5,0.8,1.8v47.7c0,4.3,0.1,6.3,3.7,6.5c1,0.1,2.3,0.2,2.3,1.3c0,0.8-0.7,1.1-1.3,1.1
				c-2.7,0-5.7-0.3-8.5-0.3c-3.6,0-6.8,0.3-9.3,0.3c-0.6,0-1.4-0.2-1.4-1c0-1.3,1.4-1.3,2.5-1.4c3.8-0.1,3.8-1.7,3.8-7.4V72.5z"/>
			<path class="st1" d="M418.2,91.5c0,3.7-1.8,7.5-4.5,10.1c-2.7,2.7-6.9,4.9-10.8,4.9c-6.1,0-9.9-5.1-9.9-10.7c0-7.8,7.3-15,15-15
				C414,80.8,418.2,85.8,418.2,91.5L418.2,91.5z M413.1,88.5c0-3.1-1.1-6.1-4.8-6.1c-2.8,0-5.1,1.9-6.8,4.4
				c-2.3,3.4-3.5,8.1-3.5,11.4c0,3.2,1,6.6,4.8,6.6c2.7,0,5-2,6.8-4.8C411.8,96.6,413.1,91.9,413.1,88.5L413.1,88.5z"/>
			<path class="st1" d="M445.4,71.5c0,1.5-1.1,2.6-2.7,2.6c-1.4,0-2-0.6-2.3-1.4c-0.3-0.6-0.4-1.4-0.5-2c-0.1-0.5-0.4-0.9-1.1-0.9
				c-0.8,0-1.9,0.8-2.6,1.6c-1.5,1.6-2.3,4.6-3.1,6.9c-0.3,1-0.7,2.1-1,3.2h4.4c0.7,0,1.3,0,1.3,0.4c0,0.3-0.1,0.6-0.3,1.1
				c-0.1,0.4-0.8,0.4-1.3,0.4h-4.6c-2.1,7-4.1,14.1-6.3,21.1c-1,3.3-2.2,6.4-4.2,9c-2.4,2.8-6,4.6-9.1,4.6c-2.8,0-5-1.3-5-3.6
				c0-1.6,1-2.9,2.7-2.9c1.6,0,2.5,0.9,2.8,2.1c0.1,0.4,0.1,0.8,0.1,1.3c0.1,0.8,0.1,1.5,1,1.5c0.9,0,2.1-1.1,2.8-2.3
				c1.3-2.2,2.7-6.6,3.4-9.1c2.2-7.3,4.4-14.5,6.6-21.7h-3.4c-0.8,0-1.1-0.1-1.1-0.4s0.2-0.9,0.3-1.1c0.2-0.4,0.7-0.4,1.4-0.4h3.4
				c1.1-3.5,2.5-7.2,5.2-9.7c2.1-1.9,5.8-3.9,8.7-3.9C443.3,68,445.4,69,445.4,71.5L445.4,71.5z"/>
			<path class="st1" d="M459.4,99.8c-1.8,0-2.1,0-3.3,3.1c-0.8,2.3-3.1,7.3-3.1,9.5c0,2.8,3.8,3,5.5,3.2c1,0.1,2.1,0.3,2.1,1.4
				c0,1.3-1.3,1.3-2.2,1.3c-1.3,0-5.3-0.3-7.1-0.3c-1.9,0-7.2,0.3-8.5,0.3c-0.8,0-1.8-0.2-1.8-1.3c0-1.3,1.6-1.3,2.6-1.5
				c3.2-0.1,4.1-0.6,6.7-7.5c4.8-12.6,9.8-25.3,14.6-37.9c0.5-1.1,1-2.5,1.4-3.6c0.2-0.8,0.7-2,2.8-2c2.1,0,2.4,1,2.7,1.7
				c4.7,11.7,12.6,31.4,17.5,42.8c1.3,2.8,2.7,6.6,6.2,6.7c0.8,0,2.4,0.1,2.4,1.4c0,1-1.1,1.2-1.7,1.2c-3.3,0-7.6-0.3-11.7-0.3
				c-2.8,0-7.4,0.3-10.3,0.3c-0.6,0-1.9-0.1-1.9-1.2c0-1.4,1.7-1.5,2.8-1.5c1.9,0,4.8-0.1,4.8-2.3c0-1.9-2.5-7.3-3.3-9.3
				c-1.7-4.3-1.3-4.3-4.8-4.3H459.4z M470.9,96.6c1.6,0,2.3-0.1,2.3-0.7c0-0.4-0.5-1.5-0.6-1.9c-1.8-4.6-3.7-8.9-5.4-13.6
				c-0.3-0.8-0.8-2.3-1.3-2.3c-0.5,0-1,1.5-1.3,2.4c-1.8,4.8-3.7,9.6-5.4,14.4c-0.2,0.4-0.3,1-0.3,1.3c0,0.5,0.7,0.5,1.7,0.5H470.9z
				"/>
			<path class="st1" d="M506,94.3c0-4.9-0.3-5.9-3.2-6.1c-1.8-0.2-2.3-0.2-2.3-1c0-1.2,0.9-1.3,2.7-1.7c2.3-0.5,6.1-2.5,7.9-4.3
				c1-0.9,1.3-1.4,2.1-1.4c1,0,1,0.8,1,1.7v3.9c0,1.2,0,1.6,0.4,1.6c0.4,0,1.4-1.6,2.8-2.9c1.6-1.6,4-3.6,7.3-3.6
				c3,0,5.3,1.9,5.3,4.8c0,2.6-1.9,4.3-4.3,4.3c-1.6,0-2.5-0.8-3.3-1.8c-0.8-0.9-1.7-1.7-2.8-1.7c-1.8,0-3,1.6-3.9,2.9
				c-1.6,2.4-1.6,4.4-1.6,7.6v12.8c0,4.1,0.1,6.3,4.3,6.4c1.2,0.1,3,0.1,3,1.3c0,0.8-0.8,1.1-1.8,1.1c-2.3,0-5.8-0.3-9.4-0.3
				c-3.8,0-6.7,0.3-9,0.3c-0.7,0-1.4-0.2-1.4-1c0-1.3,1.3-1.3,2.4-1.4c3.8-0.1,3.8-2.2,3.8-7.4V94.3z"/>
			<path class="st1" d="M544.5,105.9c0,4.1,0.5,8.8,4.6,8.8c1.6,0,2.9-0.7,3.8-1.3c1.3-0.8,1.8-1.3,2.3-1.3c0.6,0,0.8,0.5,0.8,0.8
				c0,1.7-4.9,6.2-10.8,6.2c-2.8,0-5.2-0.9-6.7-2.6c-2.1-2.3-2.2-4.6-2.2-9.9V85.8c0-1.5-0.3-1.7-1.3-1.7h-2.3c-1,0-1.8-0.2-1.8-1.1
				c0-0.9,0.6-1.2,1.6-1.6c3.8-2.1,7-4,9.3-9.1c0.4-1,0.8-1.5,1.6-1.5c0.9,0,1,0.7,1,1.3V79c0,1.1,0.1,1.8,1.3,1.8
				c2.3,0,6.1-0.2,8.5-0.2c0.9,0,0.9,0.6,0.9,1.6c0,1.8-0.3,2.1-1.4,2.1c-1.9,0-4.3-0.2-6.3-0.2c-2.6,0-3,0-3,2.2V105.9z"/>
			<path class="st1" d="M559.9,91.1c0-5.3,5.2-10.9,15.8-10.9c2.7,0,7.8,0.7,9.6,1.3c0.9,0.3,1,1.1,1,1.8c0,0.8-0.1,1.6-0.1,2.3
				c0,0.7,0.1,1.6,0.1,2.3c0,0.8-0.2,1.9-1.3,1.9c-1.4,0-1.6-2.3-3.4-4.6c-1.4-1.8-3.6-2.9-6.7-2.9c-3.1,0-6.8,2.1-6.8,5.5
				c0,4.3,4.5,5.6,9.7,7.4c5,1.8,10.6,4.2,10.6,11c0,7.9-8.8,12.8-17.2,12.8c-2.6,0-8.2-0.8-11.3-2.5c-0.6-0.3-0.9-0.6-1.2-1.2
				c-0.2-0.4-0.3-1.1-0.3-2c0-1.8,0.2-3.7,0.2-5.5c0-1,0.2-2.2,1.5-2.2c1.7,0,1.8,2.4,2.8,5.4c0.9,2.6,3,5.7,8.3,5.7
				c4.3,0,9-2.4,9-7.3c0-4.4-3.7-6.1-7.8-7.7C567.2,100,559.9,97.7,559.9,91.1L559.9,91.1z"/>
			<path class="st1" d="M609.2,102.1c0-9.5,9.4-15.4,17.9-16.9c-1.7-2.2-3-4.3-3-7.3c0-4.1,4.6-13.3,18.3-13.3
				c5.4,0,11.8,2.8,11.8,5.6c0,0.9-0.6,2.5-0.8,3.3c-0.3,0.9-0.7,3.2-2,3.2c-1.7,0-2.6-1.8-4-3.8c-1.4-2.1-3.3-3.8-6.9-3.8
				c-7.8,0-12.3,6.3-12.3,10.4c0,2.2,0.9,3.9,2.5,5.2c1-0.1,2.4-0.3,3.8-0.3c1.8,0,6.4,0.3,6.4,2.6c0,1.8-2.8,2.4-4.3,2.4
				c-2.7,0-5.2-0.8-7.4-2.2c-6.2,1.3-10.9,6.8-10.9,13.4c0,9.1,7.8,14.6,16.2,14.6c7.2,0,17.7-4.8,17.7-13.3c0-3.3-3.6-4.3-6.3-4.3
				c-6.6,0-8.4,4.7-9.3,4.7c-0.4,0-0.8-0.5-0.8-1.1c0-1.3,1.7-3.2,2.5-4c3.8-3.3,8.2-4.2,14.3-4.3c5.2-0.1,7.8-0.1,9.6-2.2
				c0.9-1.3,1.2-2.2,1.8-2.2c0.8,0,1.1,1.3,1.1,2.1c0,4.8-4.9,7.8-8.8,7.8c-0.8,0.1-1.5,0.1-2.3,0.1c0.7,0.8,1.2,2.3,1.1,3.8
				c-0.3,4.8-3.6,9.3-8.1,12.2c-4.6,2.9-10,4.4-16.3,4.4C620.2,119,609.2,113.2,609.2,102.1L609.2,102.1z"/>
			<path class="st1" d="M717.9,102.2c0,8.3-7.4,16.8-20.6,16.8c-3.5,0-9.4-0.9-13.7-3.2c-1.2-0.7-1.5-2-1.5-3.6
				c0-2.5,0.1-5.2,0.2-7.5c0.1-1.1,0.3-2.5,1.8-2.5c1.7,0,1.9,3.3,2.5,5.8c1.2,5.3,5,8.6,11.2,8.6c6.1,0,11.6-3.9,11.6-9.8
				c0-6.3-4.5-9.4-10.6-12c-1.3-0.5-2.7-1.2-4.1-1.8c-5.9-2.5-11.6-6.2-11.6-13.7c0-10.5,10.8-14.7,17.9-14.7
				c3.4,0,8.3,0.5,12.1,1.8c1.5,0.6,1.5,1.4,1.5,2.9c0.1,2.2,0.3,4.3,0.3,6.5c0,0.9-0.3,1.8-1.5,1.8s-1.6-1.3-2-2.3
				c-1.5-5.3-4.4-8.3-10.3-8.3c-5,0-9.8,2.7-9.8,8.1c0,6.5,7.8,9.1,14.2,11.8C711.6,89.6,717.9,93.6,717.9,102.2L717.9,102.2z"/>
			<path class="st1" d="M722.5,100.2c0-11.5,10.8-20.1,22.1-20.1c2.7,0,7.5,0.7,10.4,2.6c0.9,0.5,1.2,1.3,1.3,2.3c0.1,0.6,0,1.4,0,2
				s0.1,1.5,0,2.2c-0.1,1.1-0.4,2.3-1.5,2.3c-1.8,0-3-3-5.3-5.8c-1.8-2.1-3.4-3.3-5.7-3.3c-5.9,0-12.5,6.3-12.5,15.5
				c0,9,6.3,16.9,14.6,16.9c3.2,0,6.3-1,8.5-3.1c0.3-0.3,1.3-1.2,1.8-1.2c0.3,0,0.8,0.3,0.8,1c0,1.3-5.3,7.5-15.1,7.5
				C731.5,119,722.5,111.1,722.5,100.2L722.5,100.2z"/>
			<path class="st1" d="M765.3,93.9c0-4.9-0.3-5.8-3.3-5.9c-1.8-0.1-2.3-0.1-2.3-1c0-1.2,1.2-1.3,2.4-1.5c2.9-0.6,6.8-2.8,8.9-4.5
				c0.8-0.7,1.1-1.1,1.8-1.1c0.8,0,0.8,0.5,0.8,1.4c0,1.3-0.1,2.5-0.1,3.9v24.2c0,4.3,0.1,6.3,3.7,6.5c1,0.1,2.3,0.1,2.3,1.3
				c0,0.8-0.7,1.1-1.2,1.1c-2.6,0-5.8-0.3-8.6-0.3c-4.3,0-6.8,0.3-9.3,0.3c-0.7,0-1.4-0.2-1.4-1c0-1.3,1.3-1.3,2.4-1.4
				c3.8-0.1,3.8-1.8,3.8-6.8V93.9z M769.3,73.6c-2.4,0-4.8-1.8-4.8-4.8c0-2.4,1.7-4.9,5.1-4.9c2.6,0,4.8,2.1,4.8,4.8
				C774.3,71.5,772.2,73.6,769.3,73.6L769.3,73.6z"/>
			<path class="st1" d="M792.2,95.8c-2.8,0-3.3,0-3.3,2.3c0,8.6,5.7,16.2,15,16.2c4.3,0,7.2-1.5,9.2-3.1c1.4-1.2,2.2-2,2.7-2
				c0.6,0,0.9,0.4,0.9,0.9c0,1-2.3,3.2-3.3,4c-3.7,3.2-7.9,4.8-13.7,4.8c-11.9,0-19.7-9.1-19.7-19.2c0-13.3,11.8-19.7,21.5-19.7
				c10.3,0,15.7,6.8,15.7,13.5c0,1.6-0.6,2.2-1.7,2.2H792.2z M789.6,91.9c0,1,0.6,1.3,2.6,1.3c1.9,0,4,0,6-0.1c2.3,0,6.4-0.3,8.4-1
				c1.5-0.4,2.6-1.3,2.6-3.2c0-1.6-1.3-6.7-8.3-6.7C793.7,82.2,789.6,88.8,789.6,91.9L789.6,91.9z"/>
			<path class="st1" d="M825.5,93.8c0-4.6-0.3-5.5-3.1-5.6c-1.6-0.1-2.3-0.2-2.3-1c0-1.2,1.3-1.3,2.3-1.5c2.2-0.5,6.5-2.5,8.5-4.6
				c0.6-0.6,1-1.3,1.8-1.3c0.8,0,0.8,0.8,0.8,1.6v3.6c0,1,0,1.5,0.3,1.5c0.3,0,2.1-1.6,4.2-3.1c2.3-1.8,5.4-3.3,9.2-3.3
				c3.4,0,7,1.2,9.5,4.1c2.4,2.8,2.8,6.3,2.8,11v14.2c0,4,0.1,6.3,3.7,6.4c1,0.1,2.3,0.2,2.3,1.3c0,0.8-0.7,1.1-1.2,1.1
				c-2.6,0-6.4-0.3-9.2-0.3c-2.8,0-5.5,0.3-7.8,0.3c-0.7,0-1.3-0.2-1.3-1.1c0-1.1,1.2-1.2,2.1-1.3c3.2-0.2,3.2-2.3,3.2-6.4V96
				c0-2.3,0-5.3-1.3-7.4c-1.4-2.2-3.9-3.5-6.9-3.5c-2.9,0-5.4,1.2-7.3,3.1c-2.1,2.2-2.3,3.9-2.3,6.8v14.5c0,4.2,0,6.3,3.3,6.4
				c0.7,0.1,2.1,0.2,2.1,1.3c0,0.8-0.6,1.2-1.3,1.2c-2.3,0-5.6-0.3-8.5-0.3c-3.3,0-5.9,0.3-8.3,0.3c-0.5,0-1.3-0.2-1.3-1
				c0-1.3,1.3-1.3,2.3-1.4c3.7-0.2,3.7-2.3,3.7-7.4V93.8z"/>
			<path class="st1" d="M866,100.2c0-11.5,10.8-20.1,22.1-20.1c2.7,0,7.5,0.7,10.4,2.6c0.9,0.5,1.2,1.3,1.3,2.3c0.1,0.6,0,1.4,0,2
				s0.1,1.5,0,2.2c-0.1,1.1-0.4,2.3-1.5,2.3c-1.8,0-3-3-5.3-5.8c-1.8-2.1-3.4-3.3-5.7-3.3c-5.9,0-12.5,6.3-12.5,15.5
				c0,9,6.3,16.9,14.6,16.9c3.2,0,6.3-1,8.5-3.1c0.3-0.3,1.3-1.2,1.8-1.2c0.3,0,0.8,0.3,0.8,1c0,1.3-5.3,7.5-15.1,7.5
				C875,119,866,111.1,866,100.2L866,100.2z"/>
			<path class="st1" d="M914.3,95.8c-2.8,0-3.3,0-3.3,2.3c0,8.6,5.7,16.2,15,16.2c4.3,0,7.2-1.5,9.2-3.1c1.4-1.2,2.2-2,2.7-2
				c0.6,0,0.9,0.4,0.9,0.9c0,1-2.3,3.2-3.3,4c-3.7,3.2-7.9,4.8-13.7,4.8c-11.9,0-19.7-9.1-19.7-19.2c0-13.3,11.8-19.7,21.5-19.7
				c10.3,0,15.7,6.8,15.7,13.5c0,1.6-0.6,2.2-1.7,2.2H914.3z M911.7,91.9c0,1,0.6,1.3,2.6,1.3c1.9,0,4,0,6-0.1c2.3,0,6.4-0.3,8.4-1
				c1.5-0.4,2.6-1.3,2.6-3.2c0-1.6-1.3-6.7-8.3-6.7C915.8,82.2,911.7,88.8,911.7,91.9L911.7,91.9z"/>
			<path class="st1" d="M944.7,91.1c0-5.3,5.2-10.9,15.8-10.9c2.7,0,7.8,0.7,9.6,1.3c0.9,0.3,1,1.1,1,1.8c0,0.8-0.1,1.6-0.1,2.3
				c0,0.7,0.1,1.6,0.1,2.3c0,0.8-0.2,1.9-1.3,1.9c-1.4,0-1.6-2.3-3.4-4.6c-1.4-1.8-3.6-2.9-6.7-2.9c-3.1,0-6.8,2.1-6.8,5.5
				c0,4.3,4.5,5.6,9.7,7.4c5,1.8,10.6,4.2,10.6,11c0,7.9-8.8,12.8-17.2,12.8c-2.6,0-8.2-0.8-11.3-2.5c-0.6-0.3-0.9-0.6-1.2-1.2
				c-0.2-0.4-0.3-1.1-0.3-2c0-1.8,0.2-3.7,0.2-5.5c0-1,0.2-2.2,1.5-2.2c1.7,0,1.8,2.4,2.8,5.4c0.9,2.6,3,5.7,8.3,5.7
				c4.3,0,9-2.4,9-7.3c0-4.4-3.7-6.1-7.8-7.7C952,100,944.7,97.7,944.7,91.1L944.7,91.1z"/>
		</g>
		<g>
			<g>
				<polygon class="st1" points="973.8,78.5 973.8,69.3 970.3,69.3 970.3,68 978.8,68 978.8,69.3 975.3,69.3 975.3,78.5 				"/>
				<polygon class="st1" points="980.2,68 982.7,68 985.7,76.6 988.7,68 991.1,68 991.1,78.5 989.7,78.5 989.7,69.1 986.2,78.5 
					984.9,78.5 981.6,69.1 981.6,78.5 980.2,78.5 				"/>
			</g>
		</g>
	</g>
</g>
</svg>
