<?xml version="1.0" encoding="utf-8"?>
<!-- Generator: Adobe Illustrator 22.1.0, SVG Export Plug-In . SVG Version: 6.00 Build 0)  -->
<!DOCTYPE svg PUBLIC "-//W3C//DTD SVG 1.0//EN" "http://www.w3.org/TR/2001/REC-SVG-20010904/DTD/svg10.dtd">
<svg version="1.0" id="Layer_1" xmlns="http://www.w3.org/2000/svg" xmlns:xlink="http://www.w3.org/1999/xlink" x="0px" y="0px"
	 viewBox="0 0 475 500" enable-background="new 0 0 475 500" xml:space="preserve">
<g>
	<path fill="#C10230" d="M417.5,282.4c-2.3-3.9-5.4-9-5.4-9l-5.5-5.2l-3-7.4c0,0-2.4-4.3-6.4-6.3c-3.9-1.9-9.7-5.1-9.7-5.1
		s-3.3-4.1-6.5-9.5c-3.3-5.5-6.8-7.5-6.8-7.5l-4.2-1.4l-8.2-4.7l-1.2-3.4l-9-3.4l2.8-2.8l-10.5-4.1l-7.9,0.3c0,0,1.4-2.8-3.4-4.5
		c-4.8-1.7-10.7-1-10.7-1s-1.6-3.2-8-2.9c-6.5,0.3-18,3.8-18,3.8l-4.5-2.2l-18.7,6.7c0,0,0.2-2.2,5.6-4.4
		c5.3-2.3,10.1-9.7,12.8-11.6c2.7-1.8,3.6-7.3,3.6-7.3s4.6-1.6,7.5-6.8c2.9-5.2,6.6-8.7,6.6-8.7l-3.6-1.7l4.2-4.2
		c0,0,1.5-3.8,2.3-6.9c0.8-3.1,3.9-5.1,3.9-5.1l3.9-6.5c0,0-1.4-4.2-3.1-2.2c-1.7,2-1.3-1.5-1.3-1.5l4.1-7l3.5-4.9l3.9-8.9l-5,2.8
		c0,0,1.5-4.9,1.1-7.6c-0.4-2.7,0-4.2,0.4-7.2c0.4-3-1.7-6.5-1.7-6.5l1.9-5.4l-0.2-3.2l-2.1-2.1l-2.8-10.8l1.1-7.9l-0.6-7.3
		l-0.6-5.9l0.7-3.5l-1.4-5.6l-1.8-2.7l0.2-1.9c0,0-0.2-3.1-4.6-3.7c1.8-2.4-0.5-6-0.5-6l-6.8-14.1l-1.8,4.1l-0.1,5.3l1.3,6.6
		l-0.1,3.8c0,0-2.1,3.5-0.9,6.9c1.1,3.4,4.8,11.8,4.8,11.8s-1.8,3-1.6,9c0.2,6,2.1,15.4,2.1,15.4l0.4,9.3l1.6,7.7
		c0,0-3.4-0.3-2.5,5.1c0.9,5.3,0.7,10.5,0.7,10.5s-4,3.6-5.1,5.8c-1.1,2.3-2,8.9-2,8.9s-4.7,0.9-3.7,6.6c1,5.8-0.9,6.9-0.9,6.9
		l-5.4,6.1c0,0-0.3,4.8-1.1,7.9c-0.8,3.1-5.6,10.6-5.6,10.6s-3.5,0.7-4.5,3.4c-1,2.7-1,4.1-1,4.1s-2.3-2.5-3.9,0.9
		c-1.7,3.4-3,7.6-3,7.6s-3.2,0.2-5,3.1c-1.8,3-6.5,3.7-6.5,3.7l4.4-7.2l-0.8-5.5l-1-4.4l3.8-9c0,0-0.6-3.4-0.7-5.2
		c-0.2-1.8,3.7-5.9,3.7-5.9s-1.1-4.4-1.7-8.9c-0.6-4.5-0.9-8.1-0.9-8.1s0.6-10.3-0.2-12.4c-0.7-2.1-1.3,2.6-1.3,2.6l-1.6-4.6
		l-1.4-5.6l-3.8-5.7l1.5-5.2l-2.7-3.8l-2.7-8c0,0,1.5-5.2-0.8-7.7c-2.3-2.5-4.1-3.8-4.1-3.8s-0.2-3.2-1.3-8c-1.2-4.8-1.9-6.9-4-9
		c-2.1-2.1-4.9-3.5-4.9-3.5l-4.7-11.1l0-2.9c0,0,0-1.3-3.7-3.8c-3.7-2.5-5.8-4.6-5.8-4.6s0.4-3-2.2-6.3c-2.6-3.4-5.8-3.2-5.8-3.2
		l-2-4.5c0,0-0.5-5.7-3.6-6.2c-1.7,2.8-3.8-3.8-3.8-3.8l-4.9-3.5c0,0,1.4-1.4-1.6-4.6c-3-3.2-8.1-5.7-8.1-5.7s-4.7-4-6.1-5.4
		c-1.4-1.4-4.5-3.1-4.5-3.1s-5.6-0.2-4.7,2.4c0.9,2.5,0.8,0.8,3,1.9c2.3,1.1,6.9,9,6.9,9l7,5.6l0.5,2.8c0,0,0.1,3.5,1.6,5.3
		c1.6,1.8,2.4,5.7,3.8,7.1c1.4,1.4,3.8,1.5,3.8,1.5s2.5,4.2,4.5,7.2c2,3.1,3.1,5,5.7,8.4c2.6,3.4,3.9,4.9,3.9,4.9l2.4,2.9
		c0,0-1,1.3,0.7,3.5c1.7,2.2,3.3,5.5,3.3,5.5s1,2.9,3.3,4.1c2.3,1.1,2.1,3.5,2.1,3.5s0.7,2.1,3,6c2.3,3.9,4.7,9.7,4.7,9.7
		s-4.3-2.4-3.2,0.9c1.2,3.4,6.7,10.3,6.7,10.3l1.2,3.6c0,0-0.7,5,0.3,8c1,2.9,3.7,5.3,3.7,5.3l1.5,7c0,0-1.8,1.6-1.5,3.8
		c0.3,2.2,2,4.9,2,4.9v5.9c0,0-1.5,3.1-0.8,5.2c0.7,2.1,1.1,2.2,2,6.1c0.9,3.9-1,7.7-1,7.7s-2.9,1-3.1,3.4c-0.1,2.4,0.3,6.5,0.3,6.5
		s-0.3,3.4-0.5,5.3c-0.3,2,0.9,2.5-0.8,4.5s-1.7,3.4-0.7,6.3c1,2.9-0.4,5.5-0.4,5.5s-1.3-2.2-3.4-5.6c-2.3-3.6-8.5-5.9-8.5-5.9
		l2.5-3.8l1.8-4.6l-0.1-5.4l0.4-3l-1.3-2.4l-3.1-9.6c0,0-4-2.2-5.6-3.3c-4.7-3.3-3.9,2.2-3.9,2.2l2.8,2.8c0,0,1.5,2.6,1.2,6
		c-0.3,3.4-1.2,2.5,0.6,6.1c1.7,3.6-4,11.7-4,11.7s-2-2.9-6.8-1.7c-4.8,1.2-4.5,5.2-4.5,5.2l-3.6-3.1l-5.5-3.8c0,0-0.4-4.8-1.4-6.4
		c-1-1.5-0.8-4.5-0.8-4.5l0.6-7.8l-3.8,0.3c0,0-3.1,4.4-3.9,6.1c-0.8,1.7-0.5,2.9-0.2,5.1c0.3,2.2,1.7,6.5,1.7,6.5l-1.3,1.8
		c0,0,1.1,3.4,3.6,6.3c2.4,2.9,5.7,5.5,5.7,5.5l1.1,3.3c0,0-2,3.5-3.6,8.3c-1.7,4.8,0.6,9.7-1.7,8.6c-2.3-1.1-6-4.5-6-4.5l-3-6
		c0,0,0.8-3.1-1.9-5.5c-2.7-2.4-4.9-3.5-4.9-3.5s0.3-2-2.1-3.5c-2.4-1.5-5.4-1.9-5.4-1.9s1.2-3.2-0.9-5.3c-2.1-2.1-3.7-2.5-3.7-2.5
		l-3.4-7.3c0,0-2.1-4.7-4.1-7.8c-2-3.1-1.5-7.2-1.5-7.2l-2.4-7.2c0,0,1.5-3.8-0.1-8.4c-1.6-4.6-5.7-7-5.7-7s2.2-4.5,1.2-7.5
		c-1-2.9-4-7.6-4-7.6l-0.8-9.1l0.7-4.7c0,0,1-3,0-5.9c-1-2.9-2.3-6.2-2.3-6.2l0.1-5.2l0.7-3.5l-2.7-2.4l-0.3-3.7c0,0,1.5-1,0.7-6.3
		c-0.9-5.3-4.6-9.2-4.6-9.2l-0.5-6.9l1.8-4.4c0,0-2.3-5.1-0.7-8.5c1.7-3.4,0.5-3.8,0.6-6.2c0.1-2.4,1.8-7.7,1.8-7.7s3.9-9.7-3.6-3.6
		l-2.4,7.1l-1.9,5.5l-0.9,5.9l-1.1,7.9l-3.3,8.3l2.4,5.9l0.5,8.5l-0.3,6.4l1.9,3.7l-2.4,5.8l-2.5-1.5l3.9,13l0,5.6l1.2,5.2l1.3,5.8
		l0.6,5.4l-0.9,6.6l1.1,7.8L142,144l-3.8-1.2l5,7.8l2.3,8.2l2.1,3.6l1.9,3.7l1.9,1.9l0.6,5.4l2.1,6.2l5.5,5l2.1,2.4l0.4,4.9l1.9,3.7
		l2.5,5.4l2.4,1.7l1.2,3.4l3,5.2l6,3l4.6,7.4l-6.1,0.6l-5.6-0.6l-8.9-3.3l-1.1,3.3l-6.5-3.6l-4.7,1.5c0,0-1.9-3.7-5.1-5.8
		c-3.2-2-5.4-1.3-5.4-1.3l-1.1,2.3l-11.1-10.6l-2.7,3.2c0,0-2.5-5.8-4.6-6.4c-2.1-0.5-10.3-4.6-10.3-4.6s0.2-3.2-3.1-7.1
		c-3.2-3.9-7.6-9.3-7.6-9.3l-2.9-6.5c0,0-3-3.4-5.8-4.3c-2.8-0.9-2.1-4.3-2.3-6.7c-0.2-2.4-4.5-13-4.5-13l-1.9,3.3l-2.3-3l0.5-2.1
		l-2.7-4.1l-2.8-2.8l-1.7-5.1l-2.8-4.7l-4-8l-2.9-3.3c0,0,1.3-1.1,0.6-3.4c-0.8-2.2-2.5-7.3-6.5-7.9c-3.9-0.5-1.6,6.3-1.6,6.3
		l0.4,4.4l2.5,5.9l1,4.7l5,12.7l-0.9,4.7c0,0,2.1,4.3,4.4,5.4c2.3,1.1,3.6,3.2,3.6,3.2l2.1,2.4l-0.7,5.3c0,0,1.3,3.9,2.5,5.4
		c1.1,1.5,2.5,3.5,2.5,3.5l3.2,3.9l2.6,2.2l2.5,7.3l3.4,4.5l5.3,6.3c0,0,2.8,0.9,2.8,2.8c0,1.9-4,1.3-4,1.3s4.8,4.7,8.2,7.3
		c3.4,2.6,7.9,10.4,7.9,10.4l2.1,0.5l2.8,4.7l4.1,3l12,5.9l3-0.4c0,0-0.1,3.7,3.3,4.4c3.4,0.7,9.5,1.2,9.5,1.2l5.3,1.8
		c0,0,2.3,3.2,4.7,3c2.4-0.2,8.9-1.2,8.9-1.2l13-0.1l-17.8,8.9l-1.2,4.1l-7.1,5.3c0,0-4.6,4.6-5.2,6.7c-0.5,2.1-2.8,4.7-2.8,4.7
		l-4.3,4l-4.1,2.7l-3.9,5.1l-7,7.1c-3.9,0.8-0.4,4.2-2.1,6.7c-1.7,2.4-7.4,7.6-9.9,9.6c-2.4,2.1-2,3.2-1.5,4.9
		c0.6,1.7,0.6,1.7,0.6,1.7l-2.4,4l1.1,3.4l0.2,2.4c0,0-1.8,3.8-3,6c-1.1,2.3-4.3,5.8-4.3,5.8s-0.7,3.4,0,5.6c0.8,2.2,2.3,3,2.3,3
		l-3,4.1c0,0-1.1,2.3,0.4,4.9c1.5,2.6,2.1,4.3,2.1,4.3s-1.5,6.8-2.9,7.9c-1.5,1.1,0.4,3-0.3,6.4c-0.7,3.4-2,12.6-2,12.6
		s-0.7,3.4,0,5.6c0.8,2.2,4.6,11.6,5.8,2.4c1.2-9.2-0.3-11.8-0.3-11.8l2.6-5.3l1.5-5.4c0,0,3.9-0.9,5-3.1c1.1-2.3-1.9-9.4,0.3-13.9
		c2.2-4.5,4.6-8.5,4.6-8.5l2.4-5.8l-0.8-6c0,0,2.4-4,4.6-6.6c2.2-2.6,3.9-7,3.9-7s3.4,0.7,3.7-1.9c0.4-2.6,1.2-12.9,1.2-12.9
		s2.8,4.6,4.3,1.6c1.5-3,3.5-9.9,6-10.1c2.4-0.2,6.4-1.5,8.4-6.6c2-5.1,2.4-5.8,4.5-5.3c2.1,0.5,4.1-3.9,7.3-9.1
		c4.1-6.7,8.9-6.1,8.9-6.1l14.4-9.4c0,0-4.3,6.6-6.7,10.6c-2.4,4-5.5,4.1-7.2,10.6c6.2-2-4.3,8.7-4.3,10.6c0,1.9-4,12-4,12
		s-1.9,1.9-0.9,4.7c1,2.8,1.2,5.2,1.2,5.2l-4.6,12.2c0,0-0.5,2.1-0.5,3.9c0,1.9,0.8,4.1,0.8,4.1l-1.3,5.4c0,0-2,3.2-1.6,6.2
		c0.4,3,2.1,6.2,2.1,6.2s-0.3,4.5-0.1,6.9c0.2,2.4,1.5,5.5,1.5,5.5l-1.6,9.9l-0.9,8.4c0,0-1.3,3,1.6,5.8c2.8,2.8,3,3.9,3,3.9
		l0.3,6.6c2.8,3.3,4.9,8,2,10.4l2.9,8.4l3.4,4.5l-0.5,9.5l3.3-3.9l2,12.2l2.5,5.4l4.3,3.5l-0.5,3.9l2.7,4.1l2.4,1.7c0,0,1,2.8,1.7,5
		c0.8,2.3,2.5,5.4,2.5,5.4l1.9,5.6l1.5,2.6l3.4,2.6l1,2.8c0,0,1.5,4.5,2.9,6.5c1.3,2.1,3.5,3.8,3.5,3.8l8.1,9.1c0,0,9.2-0.6,4.3-5.8
		c-4.9-5.2-9.8-8.6-9.8-8.6l0.8-4l-1-2.8l-1.7-3.2l-3.2-3.9l0.6-2.1l-3.3-9.5l-2.1-2.4l-4.2-10.5l-1.7-1.3l-4-15.5
		c0,0,3,1.5,1.3-3.6c-1.7-5-3.4-8.2-3.4-8.2s-4.2-8.6-4-11.8c0.2-3.2,2.2-8.3,0.7-12.8c-1.5-4.5-3.4-10.1-3.4-10.1s4.3,4.3,4.4,1.1
		c0.2-3.2-5.1-15.9-5.1-15.9l1.7-4.3c0,0,4.5-3.4,1.3-7.3c-1.3-1.6-2-2.2-2.2-2.3l0.3-2.4l0.1-5.2l1.1-5.1l2.1-2.1l0.5-3.9l2-1.1
		l-0.5-5.5l1-7l2.2-8.3l2.2-5.6l0.6-7c0,0,2.4,0.1,2.6-3.3c0.3-3.4,2.3-10.8,2.3-10.8l3.5-5.7c-0.6,1.8,2.6,4.6,3.4,7.1
		c0.9,2.5,2.5,4.8,2.5,4.8l0.9,4.2c0,0,4.1,4.7,5.6,5.1c1.6,0.4,2,3.6,3.7,4.5c1.7,0.8,3.9,3.6,3.9,3.6l4.9-0.1c0,0,0.3,2.2,3.1,3.6
		c2.8,1.4,5.5-0.5,5.5-0.5s1.4,4.1,3.8,4.3c2.4,0.1,7.1,3,7.1,3l6.5,0.4l10.7-3.2c3.9-1.1,7.2-6.7,7.2-6.7l0.6-3.3l5-3.4l1.1-5
		l1.7-3.9l2.7-5l1.8-6.7c0,0,1.5-7.7,1.5-10.5c0-2.8-1.9-5.5-1.7-8.9c0.3-3.4-1.4-8,1.1-7.4c2.5,0.5,4.8,0.3,6.7,2.9
		c1.8,2.7,3.3,1.2,4.6,3.6c1.3,2.4,4.8,1.7,4.8,1.7l4.3,7c0,0,2.7,2.4,4.2,2.8c1.5,0.4,2.8,4.2,2.8,4.2s2.8,0,3.8-1.3
		c1-1.3,3,0.4,3,0.4s0.4,2.7,2.4,4.3c2,1.7,5.5,2.4,5.5,2.4s1.6,4.6,2.4,5.7c0.8,1.1,2,3.1,4.1,3.8c2.1,0.7,3.2-0.2,3.2-0.2
		s1.2,4.8,2.7,6.6c1.6,1.8,4.4,4.6,4.4,4.6s1,2.9,2.5,3.4c1.6,0.4,1.6,0.4,1.6,0.4l3.4,5.9c0,0,2.1,0.7,2.7,2.4
		c0.6,1.7,4.6,9.2,5.7,12.6c1.2,3.4,1,8.6,1,8.6s3.3,5.5,3.6,7.7c0.3,2.2-2.1,6.3-2.1,6.3s1.9,4.1,2.6,6.2c0.7,2.1,1.2,6.2,1.2,6.2
		s-2.9,2.4-2.5,5.1c0.4,2.7,1.7,6.5,1.7,6.5s-1.1,5.1-0.1,6.6c1,1.5,4.7,4,4.7,4s-2.2,5.9-1.2,8.9c1,2.9,2.2,7.7,2.2,7.7l1.9,6.9
		l-1.2,4.7l-0.8,3.1l1.8,9.3l-1.7,2l-1.1,7.9l1.3,6.6l-1.6,7.6c0,0-0.5,3.9,2.6,4.8c3.1,0.8,3.9-2.3,4.3-5.2c0.4-3,1.8-10,1.8-10
		l2.2-8.7L380,430l1.1-18.7l-1.2-4.8l1.4-2.8l-2-7.3l3.9,0.3l-3.5-11.7l-1.7-6.4c0,0,4.4-1,3.8-4.1l-2.2-7.7l-1.2-6.2l-1.2-3.4
		l0.7-2.1l-0.3-3.7l0.8-3.1l-0.6-3.1l0.9-5.5l-3.3-5.5l-2.3-8.1l-1.8-1.3l0.8-3.1l-1.3-5.2l-2.7-3.8l3.3-1.7
		c-2.2-2.2-3.3-8.9-5.8-11.1c-4.2-3.8-6.9-6.6-6.9-6.6s-0.9-1.1-1.6-3.2c-0.7-2.1,0.1-2.4-2.3-5.3c-2.4-2.9-3.7-2.5-3.7-2.5
		l-0.4-2.7c0,0,0.4-3-2.4-5.8c-2.8-2.8-5.2-4.3-5.2-4.3l-2-5.9l-8.8-6.4c0,0,2.9-3.8-2-5.9c-4.9-2.1-10.1-3.6-10.1-3.6l-3.5-2.1
		c0,0,1.8-3-3.4-4.5c-5.2-1.5-6.6-1.5-6.6-1.5l-2.8-2.8c0,0,0.4,1.8-4.1-0.4c-4.5-2.2-8.7-3.3-8.7-3.3c-4.4-0.6-12-2.6-6.5-3.1
		c0,0,3.8-4.3,10.4-4.2c6.6,0.1,9.1-2.2,9.1-2.2l5.5-0.5l3.9,0.5c0,0,3.5,2.1,5.6,2.8c2.1,0.7,6.1,2.6,7.8,2.1
		c1.7-0.6,4.7,0.2,4.7,0.2s5.2,1.5,7.5,2.6c2.3,1.1,4.1,1,5.9,0.8c1.8-0.2,1.8-0.2,1.8-0.2l7.5,4l4.1,6.6l3.1-0.6l4.7,8.3l5.5,0.9
		l3.8,1.5c0,0,0.7,2.1,3.6,4.9c2.8,2.8,6.2,3.1,6.2,3.1l3.1,5c0,0,1.3,3.8,3.4,3.1c2.1-0.7,2.1-0.7,2.1-0.7l6.5,3.9c0,0,0.3,3.7,3,6
		c2.7,2.4,3.7,1.1,3.7,1.1s2.2,6.3,3,7.4c0.9,1.1,5.1,9.7,7.6,8.8C420.2,294.7,419.8,286.3,417.5,282.4z"/>
	<g>
		<g>
			<path fill="#C10230" d="M391.5,467.3c-3.7,0-6.7-3-6.7-6.7c0-3.7,3-6.7,6.7-6.7c3.7,0,6.7,3,6.7,6.7
				C398.2,464.3,395.2,467.3,391.5,467.3z M391.5,455.1c-3.1,0-5.5,2.5-5.5,5.5c0,3.1,2.5,5.5,5.5,5.5c3.1,0,5.5-2.5,5.5-5.5
				C397.1,457.6,394.6,455.1,391.5,455.1z"/>
		</g>
		<g>
			<path fill="#C10230" d="M389,464v-6.6h2.9c0.6,0,1,0.1,1.4,0.2c0.3,0.1,0.6,0.3,0.7,0.6c0.2,0.3,0.3,0.6,0.3,1
				c0,0.5-0.2,0.9-0.5,1.2c-0.3,0.3-0.8,0.5-1.4,0.6c0.2,0.1,0.4,0.2,0.5,0.3c0.3,0.2,0.5,0.5,0.7,0.9l1.2,1.8h-1.1l-0.9-1.4
				c-0.3-0.4-0.5-0.7-0.6-0.9c-0.2-0.2-0.3-0.4-0.4-0.4c-0.1-0.1-0.3-0.1-0.4-0.2c-0.1,0-0.3,0-0.5,0h-1v2.9H389z M389.9,460.3h1.9
				c0.4,0,0.7,0,0.9-0.1c0.2-0.1,0.4-0.2,0.5-0.4c0.1-0.2,0.2-0.4,0.2-0.6c0-0.3-0.1-0.6-0.3-0.8c-0.2-0.2-0.6-0.3-1.1-0.3h-2.1
				V460.3z"/>
		</g>
	</g>
</g>
</svg>
