<?xml version="1.0" encoding="utf-8"?>
<!-- Generator: Adobe Illustrator 22.1.0, SVG Export Plug-In . SVG Version: 6.00 Build 0)  -->
<!DOCTYPE svg PUBLIC "-//W3C//DTD SVG 1.0//EN" "http://www.w3.org/TR/2001/REC-SVG-20010904/DTD/svg10.dtd">
<svg version="1.0" id="Layer_1" xmlns="http://www.w3.org/2000/svg" xmlns:xlink="http://www.w3.org/1999/xlink" x="0px" y="0px"
	 viewBox="0 0 600 50.9" enable-background="new 0 0 600 50.9" xml:space="preserve">
<path fill="#000066" d="M95.7,5.7v0.7C91,7,90.8,9.8,90.5,16.5l-0.3,11.2C90.1,34.3,87.3,41,75.9,41c-15.8,0-14.3-11.5-14.3-15.5V14
	c-0.1-5.3-0.1-6.9-6.3-7.6V5.7H73v0.7c-6.7,1-6.7,2.1-6.7,7.7v10.5c0,1-1.7,14.1,12.3,14.1c11,0,9.9-10.5,9.9-16.8v-5.3
	c0-6.4-0.6-9.5-7.7-10.1V5.9C80.8,5.9,95.7,5.7,95.7,5.7z"/>
<path fill="#000066" d="M118.9,34.4l-0.1-14c0-3.6-1-4.8-5.3-5.5v-0.6h10.5V15c-2.7,0.3-3.1,1.8-3.5,4.3c-0.6,4.2-0.3,13.4-0.1,21.8
	l-0.6,0.1c-6.2-7.3-13-14-19.4-21v7c0,9.5-0.3,11.5,5.3,12.6v0.6H94.1v-0.6c5.2-0.6,5-4.1,5-12.7v-5.7c0-3.8-0.6-5.3-5.5-6.4v-0.6
	h6.3C100,14.4,118.9,34.4,118.9,34.4z M133,34.1c0.1,3.9,0.1,5,4.8,5.7v0.6h-12.9v-0.6c4.6-0.6,4.6-1.8,4.8-5.7V20.7
	c-0.1-3.9-0.1-5-4.8-5.7v-0.6h12.9V15c-4.6,0.6-4.6,1.8-4.8,5.7V34.1z M167.8,14.4V15c-3.6,0.3-4.8,3.4-7.1,9l-7.3,17.5h-0.6
	l-8.7-20.7c-1.1-2.8-2.1-5.3-5.5-5.6v-0.6h12.2v0.6c-5.5,0.6-3.6,3.6-2.7,6l6.2,14.8l4.5-10.9c3.4-7.8,3.9-9.1-2-9.9v-0.6
	C156.9,14.5,167.8,14.4,167.8,14.4z M168.7,39.9c4.6-0.6,4.6-1.8,4.8-5.7V20.7c-0.1-3.9-0.1-5-4.8-5.7v-0.6h20.6l-0.4,5.9h-0.6
	c-0.3-4.9-3.8-5-7.7-5h-3.8v10.9h3.9c2.9,0,5-0.3,5.5-3.5h0.6v8.5h-0.6c-0.6-3.4-2.7-3.4-5.5-3.4h-3.9v6.3c0,2.2-0.6,5.5,5.7,5.5
	c4.9,0,7.1-1.8,8.1-6.7h0.6c0,2.9-0.6,5.3-1.3,7.6h-21.3L168.7,39.9L168.7,39.9z M196.4,22.2c0-5.9-0.1-6.7-4.5-7.1v-0.6l9.4-0.3
	c9.7-0.3,10.3,4.5,10.3,6.3c0,3.2-2,5-4.8,6.3l0.1,0.3c2.9,5.2,6.6,11.7,13,13l-0.1,0.6c-4.1-0.1-7-0.1-9.2-2.4
	c-2.5-2.7-4.5-6-5.3-7.7c-1.5-3.2-2.9-2.2-5.6-2.7v6.2c0,4.2,0.1,5,5.3,5.7v0.6h-13.4v-0.6c4.6-0.6,4.6-1.8,4.8-5.7L196.4,22.2
	L196.4,22.2z M199.7,27.4c3.6,0,8-1.7,8-6c0-4.5-3.9-6.3-8-6.3V27.4z"/>
<path fill="#000066" d="M233.1,21.1h-0.6c-0.6-3.1-1.7-6.2-5.5-6.2c-2.5,0-4.5,1.7-4.5,4.2c0,6.6,12,6.4,12,14.1
	c0,4.9-4.9,7.6-9.4,7.6c-2.4,0-4.8-0.7-6.7-2l-1.1-6.6h0.7c1,3.6,3.5,7.3,7.7,7.3c2.8,0,5-1.7,5-4.6c0-6.9-11.7-6.2-11.7-13.8
	c0-4.5,4.5-7.3,8.5-7.3c2,0,3.9,0.6,5.6,1.5L233.1,21.1L233.1,21.1z M244.2,34.1c0.1,3.9,0.1,5,4.8,5.7v0.6h-12.9v-0.6
	c4.6-0.6,4.6-1.8,4.8-5.7V20.7c-0.1-3.9-0.1-5-4.8-5.7v-0.6H249V15c-4.6,0.6-4.6,1.8-4.8,5.7V34.1z M273.3,13.3h0.3l0.6,7.1
	l-0.6,0.1c-1.4-4.8-3.5-4.9-7.8-4.9h-2.2v17.8c0,4.8,0.3,6,5.3,6.6v0.6h-14.1V40c5.2-0.6,5.3-1.8,5.3-6.6V15.5h-2.2
	c-4.3,0-6.6,0.1-7.8,4.9l-0.6-0.1l0.6-7.1h0.3l0.4,0.3c1,0.8,1.1,0.8,2.4,0.8h17.5c1.3,0,1.4,0,2.4-0.8L273.3,13.3L273.3,13.3z
	 M299.4,14.4V15c-3.4,0.3-5,2.1-6.6,4.9l-4.5,9v4.3c0.1,4.5,0.1,6,5,6.7v0.6H280v-0.6c4.9-0.7,5-2.4,5-6.7v-3.1l-3.9-8.7
	c-1.4-3.2-2.5-5.9-6.3-6.4v-0.6h10.6V15c-3.1,0.4-2.7,1.7-1.5,4.3l3.8,8.3l3.4-6.3c2.4-4.5,2.1-5.9-1.3-6.3v-0.6
	C289.8,14.4,299.4,14.4,299.4,14.4z M339.3,27.4c0,8.3-6,13.4-14,13.4c-8.1,0-14-5.3-14-13.6c0-8.1,6-13.4,14-13.4
	C335.1,14,339.3,20.6,339.3,27.4z M315.7,26.4c0,5.9,3.1,13.6,10.1,13.6c6.3,0,9.1-6.4,9.1-11.9c-0.1-6.7-4.1-13.1-9.9-13.1
	C318.3,14.8,315.7,21.3,315.7,26.4L315.7,26.4z"/>
<path fill="#000066" d="M357.5,22.8v9.4h-0.6c-0.3-3.9-2.2-3.8-5.5-3.8h-4.2v5.7c0,4.1,0.1,4.9,5.5,5.7v0.6H339v-0.6
	c4.6-0.6,4.6-1.8,4.8-5.7V20.7c-0.1-3.9-0.1-5-4.8-5.7v-0.6h20.3l-0.6,6h-0.6c-0.3-4.9-3.5-5.2-7.4-5.2h-3.5v11.5h4.2
	c3.2,0,5.2-0.3,5.5-3.9H357.5L357.5,22.8z M379.4,16.2c0-7.8-0.3-9-6-9.5V6l12.4-0.4c12.9-0.4,13.8,5.9,13.8,8.4
	c0,4.3-2.7,6.7-6.3,8.4l0.3,0.4c3.9,6.9,8.8,15.7,17.2,17.5l-0.1,0.7c-5.5-0.3-9.4-0.1-12.3-3.2c-3.4-3.5-6-8-7.1-10.2
	c-2.1-4.2-3.9-3.1-7.4-3.6v8.3c0,5.6,0.1,6.6,7.1,7.6v0.7h-17.9v-0.7c6.2-0.8,6.2-2.4,6.3-7.6L379.4,16.2L379.4,16.2z M383.9,22.9
	c4.9,0,10.6-2.2,10.6-8c0-6-5.3-8.4-10.6-8.4V22.9z"/>
<path fill="#000066" d="M416.6,34.1c0.1,3.9,0.1,5,4.8,5.7v0.6h-12.9v-0.6c4.6-0.6,4.6-1.8,4.8-5.7V20.7c-0.1-3.9-0.1-5-4.8-5.7
	v-0.6h12.9V15c-4.6,0.6-4.6,1.8-4.8,5.7L416.6,34.1L416.6,34.1z"/>
<path fill="#000066" d="M444.9,22.2h-0.6c-0.7-4.3-3.2-7.4-7.8-7.4c-7,0-10.9,5.7-10.9,12.3c0,7.6,5.7,12.7,11.3,12.7
	c5,0,7-3.6,8.7-7.8l0.6,0.3c-0.4,2.4-1.1,4.6-2.1,6.9c-2.5,1.1-5,1.7-7.8,1.7c-8,0-15.1-4.6-15.1-13.3c0-6.9,5.3-13.7,15.4-13.7
	c2.9,0,5.9,0.6,8.4,2.1L444.9,22.2L444.9,22.2z M454.4,34.1c0,4.2,0.1,5,5,5.7v0.6h-13.3v-0.6c4.6-0.6,4.6-1.8,4.8-5.7V20.7
	c-0.1-3.9-0.1-5-4.8-5.7v-0.6h13.3V15c-5,0.7-5,1.5-5,5.7v5.6h15.4v-5.6c0-4.2-0.1-5-5-5.7v-0.6h13.1V15c-4.6,0.6-4.6,1.8-4.8,5.7
	v13.4c0.1,3.9,0.1,5,4.8,5.7v0.6h-13.1v-0.6c5-0.7,5-1.5,5-5.7v-6.3h-15.4V34.1z M497.1,34.8l7-15.2c1-2.1,1.5-4.1,0.7-4.6l0.1-0.6
	h8.4V15c-2.5,0.6-3.9,1.4-3.8,4.1l0.8,14c0.4,5.3,0.4,6.2,4.5,6.9v0.6h-12.6v-0.6c2.9-0.4,4.9-0.8,4.6-4.2l-1-16.8h-0.1l-9.8,21.5
	h-0.4l-9.1-20.6h-0.1c-0.6,5.9-1,10.1-1.1,16.1c-0.1,1.5,0,3.2,4.6,3.9v0.6h-10.6v-0.6c3.4-0.6,3.8-2.2,4.3-5.3l1.4-10.8l0.6-5.2
	c0.3-2.5-2-3.4-4.2-3.6v-0.6h8.3v0.4c-0.8,0.8,0.1,3.2,0.4,3.8L497.1,34.8L497.1,34.8z"/>
<path fill="#000066" d="M542.2,27.4c0,8.3-6,13.4-14,13.4c-8.1,0-14-5.3-14-13.6c0-8.1,6-13.4,14-13.4
	C537.9,14,542.2,20.6,542.2,27.4z M518.6,26.4c0,5.9,3.1,13.6,10.1,13.6c6.3,0,9.1-6.4,9.1-11.9c-0.1-6.7-4.1-13.1-9.9-13.1
	C521.3,14.8,518.6,21.3,518.6,26.4z"/>
<path fill="#000066" d="M566.4,34.4l-0.1-14c0-3.6-1-4.8-5.3-5.5v-0.6h10.5V15c-2.7,0.3-3.1,1.8-3.5,4.3c-0.6,4.2-0.3,13.4-0.1,21.8
	l-0.6,0.1c-6.2-7.3-13-14-19.4-21v7c0,9.5-0.3,11.5,5.3,12.6v0.6h-11.5v-0.6c5.2-0.6,5-4.1,5-12.7v-5.7c0-3.8-0.6-5.3-5.5-6.4v-0.6
	h6.3C547.6,14.4,566.4,34.4,566.4,34.4z M572.2,14.7l9.2-0.3c16.9-0.6,18.6,9.2,18.6,13.1c0,5.5-3.5,13.1-16.6,13l-11.5-0.1v-0.6
	c4.6-0.6,4.6-1.8,4.8-5.7V20.8c-0.1-3.9-0.1-5-4.5-5.7L572.2,14.7L572.2,14.7z M580.1,34.5c0,2.5,0.4,5,5.2,5
	c4.3,0,10.3-2.8,10.3-11.5c0-9.2-7.3-13-15.5-13V34.5z"/>
<path fill="#FFFFFF" d="M42.7,0H0v15.5l0.1,7.8c0,2.2,0.3,4.3,0.7,6.3c0.4,1.8,1.1,3.8,1.8,5.5c1.4,3.1,3.4,5.7,6,8.3
	c1.1,1,2.2,2,3.5,2.9c1.1,0.8,2.2,1.5,3.4,2.1c2.7,1.4,4.6,2.1,5.3,2.4l0.6,0.1l0.6-0.1c0.7-0.3,2.7-0.8,5.3-2.4l3.4-2.1
	c1.3-0.8,2.4-1.8,3.5-2.9c2.5-2.4,4.5-5.2,6-8.3c0.8-1.7,1.4-3.5,1.8-5.5s0.7-4.2,0.7-6.3l0.1-7.8V0C42.8,0,42.7,0,42.7,0z"/>
<path fill="#000066" d="M0.6,15.9l0.1,7.4c0,2.1,0.3,4.2,0.7,6.2c0.4,1.8,1,3.6,1.8,5.3c1.4,2.9,3.4,5.7,5.9,8.1c1,1,2.2,2,3.4,2.8
	c1.1,0.7,2.2,1.5,3.4,2.1c2.5,1.4,4.5,2.1,5.2,2.2l0.4,0.1l0.4-0.1c0.7-0.1,2.7-0.8,5.2-2.2l3.4-2.1c1.3-0.8,2.4-1.8,3.4-2.8
	c2.5-2.4,4.5-5.2,5.9-8.1c0.8-1.7,1.4-3.5,1.8-5.3c0.4-2,0.7-4.1,0.7-6.2l0.1-7.4C42.2,15.9,0.6,15.9,0.6,15.9z M41.3,23.4
	c0,2.1-0.3,4.1-0.7,6c-0.4,1.8-1,3.5-1.8,5.2c-1.4,2.9-3.2,5.5-5.7,7.8c-1,1-2.1,2-3.4,2.8c-1,0.7-2.1,1.4-3.2,2.1
	c-2.5,1.4-4.3,2-5,2.2h-0.3c-0.7-0.1-2.5-0.8-5-2.2c-1.1-0.6-2.2-1.3-3.2-2.1c-1.1-0.8-2.2-1.8-3.4-2.8c-2.4-2.4-4.3-5-5.7-7.8
	c-0.8-1.7-1.4-3.4-1.8-5.2c-0.4-2-0.7-3.9-0.7-6v-6.7h40.1L41.3,23.4z"/>
<path fill="#000066" d="M2.7,29.2c0.4,1.8,1,3.5,1.7,5c1.3,2.8,3.2,5.5,5.6,7.7c1,1,2.1,1.8,3.2,2.7c1,0.7,2.1,1.4,3.2,2
	c2.5,1.4,4.3,2,4.9,2.1h0.3c0.7-0.1,2.5-0.8,4.9-2.1c1.1-0.6,2.1-1.3,3.2-2c1.1-0.8,2.2-1.7,3.2-2.7c2.4-2.2,4.2-4.9,5.6-7.7
	c0.7-1.5,1.4-3.4,1.7-5c0.4-2,0.7-3.9,0.7-5.9v-6.3H2v6.3C2,25.3,2.2,27.4,2.7,29.2z M40.4,17.5v5.9c0,16.8-14.5,23.9-19,25.2
	c-4.5-1.3-19-8.4-19-25.2v-5.9C2.4,17.5,40.4,17.5,40.4,17.5z M0.6,0.6h41.5v3.1H0.6V0.6z"/>
<path fill="#990000" d="M25,33h7.4v7.4H25V33z M25,18h7.4v7.4H25V18z M10.2,18h7.4v7.4h-7.4L10.2,18z M10.2,33h7.4v7.4h-7.4L10.2,33
	z M17.6,25.5H25v7.4h-7.4V25.5z"/>
<path fill="#990000" d="M17.6,40.4v5.9c1.8,0.8,3.1,1.4,3.8,1.5c0.7-0.1,2-0.7,3.8-1.5v-5.9C25.2,40.4,17.6,40.4,17.6,40.4z
	 M39.6,25.5h-7.1v7.4h5.3c0.6-1.3,1-2.7,1.3-3.9C39.3,27.8,39.6,26.7,39.6,25.5z M10.2,25.5H3.1c0.1,1.3,0.3,2.4,0.6,3.5
	c0.3,1.4,0.7,2.7,1.3,3.9h5.3C10.2,32.9,10.2,25.5,10.2,25.5z"/>
<path fill="#000066" d="M0.6,5.7v9.1h41.5V5.7H0.6z"/>
</svg>
